<?xml version="1.0" encoding="utf-8"?>
<!-- Generator: Adobe Illustrator 22.0.0, SVG Export Plug-In . SVG Version: 6.00 Build 0)  -->
<svg version="1.1" id="Layer_1" xmlns="http://www.w3.org/2000/svg" xmlns:xlink="http://www.w3.org/1999/xlink" x="0px" y="0px"
	 viewBox="0 0 30 30" style="enable-background:new 0 0 30 30;" xml:space="preserve">
<style type="text/css">
	.st0{fill:#2A63FF;stroke:#FFFFFF;stroke-miterlimit:10;}
</style>
<path class="st0" d="M15,2C8.9,2,4,6.9,4,13c0,7.2,7.2,10.7,8,11.5c0.9,0.8,1.7,2.7,2,3.7c0.1,0.5,0.6,0.8,1,0.8
	c0.4,0,0.8-0.3,1-0.8c0.3-1,1.1-2.9,2-3.7c0.9-0.8,8-4.3,8-11.5C26,6.9,21.1,2,15,2z M15,16c-1.7,0-3-1.3-3-3s1.3-3,3-3s3,1.3,3,3
	S16.7,16,15,16z"/>
</svg>
