<?xml version="1.0" encoding="utf-8"?>
<!-- Generator: Adobe Illustrator 22.0.0, SVG Export Plug-In . SVG Version: 6.00 Build 0)  -->
<svg version="1.1" id="Layer_1" xmlns="http://www.w3.org/2000/svg" xmlns:xlink="http://www.w3.org/1999/xlink" x="0px" y="0px"
	 viewBox="0 0 512 512" style="enable-background:new 0 0 512 512;" xml:space="preserve">
<style type="text/css">
	.st0{fill:#DBDBDB;}
</style>
<path class="st0" d="M416,448c0,55.7-100.2,64-160,64s-160-8.3-160-64c0-41.6,55.9-56.8,109.1-61.8l9,31.7
	c-50,4.3-86.1,16.1-86.1,30.1c0,17.7,57.3,32,128,32c70.7,0,128-14.3,128-32c0-14-36.1-25.8-86.1-30.1l9.1-31.7
	C360.1,391.2,416,406.4,416,448z M314.4,243.4L256,448l-59.9-209.7c-38.1-22.2-64.1-63-64.1-110.3C132,57.3,189.3,0,260,0
	s128,57.3,128,128C388,179.1,357.8,222.9,314.4,243.4z M320,128c0-35.3-28.7-64-64-64s-64,28.7-64,64s28.7,64,64,64
	S320,163.3,320,128z"/>
</svg>
