<?xml version="1.0" encoding="utf-8"?>
<!-- Generator: Adobe Illustrator 22.0.0, SVG Export Plug-In . SVG Version: 6.00 Build 0)  -->
<svg version="1.1" id="Layer_1" xmlns="http://www.w3.org/2000/svg" xmlns:xlink="http://www.w3.org/1999/xlink" x="0px" y="0px"
	 viewBox="0 0 352 512" style="enable-background:new 0 0 352 512;" xml:space="preserve">
<style type="text/css">
	.st0{fill:#FF755F;}
</style>
<path class="st0" d="M205.2,22.1c-7.9-28.8-49.4-30.1-58.4,0C100,179.9,0,222.7,0,333.9C0,432.4,78.7,512,176,512
	s176-79.6,176-178.1C352,222.2,252.2,180.6,205.2,22.1z M176,448c-61.8,0-112-50.2-112-112c0-8.8,7.2-16,16-16s16,7.2,16,16
	c0,44.1,35.9,80,80,80c8.8,0,16,7.2,16,16S184.8,448,176,448z"/>
</svg>
